{
    "asset": {
        "version": "2.0",
        "generator": "Open Asset Import Library (assimp v5.0.5eb040c7)"
    },
    "accessors": [
        {
            "bufferView": 0,
            "byteOffset": 0,
            "componentType": 5126,
            "count": 17178,
            "type": "VEC3",
            "max": [
                17.096115112304689,
                80.91435241699219,
                72.34276580810547
            ],
            "min": [
                -17.1613712310791,
                -0.15429699420928956,
                -61.76521682739258
            ]
        },
        {
            "bufferView": 1,
            "byteOffset": 0,
            "componentType": 5125,
            "count": 91452,
            "type": "SCALAR",
            "max": [
                17177
            ],
            "min": [
                0
            ]
        }
    ],
    "buffers": [
        {
            "byteLength": 571944,
            "uri": "result.bin"
        }
    ],
    "bufferViews": [
        {
            "buffer": 0,
            "byteOffset": 0,
            "byteLength": 206136,
            "target": 34962
        },
        {
            "buffer": 0,
            "byteOffset": 206136,
            "byteLength": 365808,
            "target": 34963
        }
    ],
    "images": [
        {
            "uri": "textures\\5.png"
        }
    ],
    "materials": [
        {
            "name": "Material_47",
            "pbrMetallicRoughness": {
                "baseColorTexture": {
                    "index": 0
                },
                "metallicFactor": 0.0,
                "roughnessFactor": 5.960464477539063e-8
            }
        }
    ],
    "meshes": [
        {
            "name": "mesh_id32",
            "primitives": [
                {
                    "mode": 4,
                    "material": 0,
                    "indices": 1,
                    "attributes": {
                        "POSITION": 0
                    }
                }
            ]
        }
    ],
    "nodes": [
        {
            "name": "RootNode",
            "children": [
                1
            ]
        },
        {
            "name": "root",
            "children": [
                2
            ]
        },
        {
            "name": "node_id31",
            "matrix": [
                0.004978364799171686,
                0.0,
                -0.003886275226250291,
                0.0,
                0.0,
                0.006315635051578283,
                0.0,
                0.0,
                0.003886275226250291,
                0.0,
                0.004978364799171686,
                0.0,
                -0.020391205325722696,
                -0.2550255060195923,
                0.3970322906970978,
                1.0
            ],
            "mesh": 0
        }
    ],
    "samplers": [
        {}
    ],
    "scenes": [
        {
            "nodes": [
                0
            ]
        }
    ],
    "textures": [
        {
            "source": 0,
            "sampler": 0
        }
    ],
    "scene": 0
}